<svg width="800" height="600" xmlns="http://www.w3.org/2000/svg">

 <g>
  <title>Layer 1</title>
  <text transform="matrix(8.11197 0 0 14.9518 -585.447 -1974.35)" stroke="#000" xml:space="preserve" text-anchor="start" font-family="Noto Sans JP" font-size="24" id="svg_2" y="170.45578" x="73.45325" stroke-width="0" fill="#000000">MASTER</text>
  <text transform="matrix(8.723 0 0 12.1603 -680.935 -1071.99)" stroke="#000" xml:space="preserve" text-anchor="start" font-family="Noto Sans JP" font-size="24" id="svg_1" y="106.65539" x="78.22161" stroke-width="0" fill="#000000">TRAVEL</text>
  <path transform="rotate(15.2988 395 300.835)" d="m308,302.33499c1,0 1.82376,-0.48627 4,-1c1.9465,-0.4595 4,0 5,0c2,0 3.02582,0.32037 5,0c3.12143,-0.50653 8.02249,-0.63345 11,-1c4.09222,-0.50378 6,-1 8,-1c2,0 3,0 10,0c10,0 22,0 38,0c17,0 37,0 50,0c15,0 25,0 35,0l5,0l3,1" id="svg_4" stroke-width="0" stroke="#000" fill="none"/>
 </g>
</svg>